<?xml version="1.0" encoding="utf-8"?>
<svg version="1.1" xmlns="http://www.w3.org/2000/svg" xmlns:xlink="http://www.w3.org/1999/xlink" x="0px" y="0px" viewBox="0 0 256 256" enable-background="new 0 0 256 256" xml:space="preserve">
<g><g><path fill="#6C63FF" d="M196.4,228.8c0-4.8-2-9.1-5.2-12.2l0,0l-89.9-88.7l88.1-86.9c4.2-3.1,7-8.1,7-13.8c0-9.5-7.8-17.2-17.4-17.2c-4.8,0-9.1,1.9-12.2,4.9l-0.1-0.1l-89.9,88.7l0,0l-9.7,9.6c-4.5,4.4-7.4,8.8-7.4,14.6s3.3,10.9,7.4,14.9l9.7,9.6l0,0l89.3,88.1c3.2,3.5,7.8,5.8,13,5.8C188.6,246,196.4,238.3,196.4,228.8z"/></g></g>
</svg>